{"title":"Greys Anatomy S07E14 HDTV XviD-LOL {TheCloon}","uid":6167595,"size":365888564,"categoryP":"video","categoryS":"tv_shows","magnet":"?xt=urn:btih:cb84c9f72d248d408a411d7abc30b91f3cfc821c&amp;dn=Greys+Anatomy+S07E14+HDTV+XviD-LOL+%7BTheCloon%7D&amp;tr=udp%3A%2F%2Ftracker.openbittorrent.com%3A80&amp;tr=udp%3A%2F%2Fopen.demonii.com%3A1337&amp;tr=udp%3A%2F%2Ftracker.coppersurfer.tk%3A6969&amp;tr=udp%3A%2F%2Fexodus.desync.com%3A6969","seeders":1,"leechers":0,"uploader":"TheCloon","files":4,"time":1297441915,"description":"###\n\nGreys Anatomy S07E14 HDTV XviD-LOL\n\n###\n &lt;a href=&quot;\nhttp://www.tvrage.com/Greys_Anatomy&quot; rel=&quot;nofollow&quot; target=&quot;_NEW&quot;&gt;\nhttp://www.tvrage.com/Greys_Anatomy&lt;/a&gt;\n\n###\n\nThatcher Grey, Meredith and Lexie's father, returns to Seattle Grace with stomach pains and a new, twenty-something tattooed girlfriend, Danielle. Meanwhile, Alex clashes with the new OB, Dr. Lucy Fields, over a patient and Mark places Jackson on his service in exchange for information on Lexie. \n\n###\n\n[CODE]\nFormat                           : AVI\nFormat/Info                      : Audio Video Interleave\nFile size                        : 349 MiB\nDuration                         : 42mn 26s\nOverall bit rate                 : 1 150 Kbps\nWriting application              : transcode-1.0.6\n\nVideo\nID                               : 0\nFormat                           : MPEG-4 Visual\nFormat profile                   : Advanced Simple@L5\nFormat settings, BVOP            : 2\nFormat settings, QPel            : No\nFormat settings, GMC             : No warppoints\nFormat settings, Matrix          : Default (H.263)\nCodec ID                         : XVID\nCodec ID/Hint                    : XviD\nDuration                         : 42mn 26s\nBit rate                         : 1 005 Kbps\nWidth                            : 624 pixels\nHeight                           : 352 pixels\nDisplay aspect ratio             : 16:9\nFrame rate                       : 23.976 fps\nColor space                      : YUV\nChroma subsampling               : 4:2:0\nBit depth                        : 8 bits\nScan type                        : Progressive\nCompression mode                 : Lossy\nBits/(Pixel*Frame)               : 0.191\nStream size                      : 305 MiB (87%)\nWriting library                  : XviD 1.2.1 (UTC 2008-12-04)\n\nAudio\nID                               : 1\nFormat                           : MPEG Audio\nFormat version                   : Version 1\nFormat profile                   : Layer 3\nMode                             : Joint stereo\nCodec ID                         : 55\nCodec ID/Hint                    : MP3\nDuration                         : 42mn 26s\nBit rate mode                    : Variable\nBit rate                         : 128 Kbps\nChannel(s)                       : 2 channels\nSampling rate                    : 48.0 KHz\nCompression mode                 : Lossy\nStream size                      : 40.1 MiB (12%)\nAlignment                        : Aligned on interleaves\nInterleave, duration             : 24 ms (0.58 video frame)\nWriting library                  : LAME3.90.\nEncoding settings                : -m j -V 4 -q 2 -lowpass 17.6 --abr 128\n[/CODE]\n","torrent":{"xt":"urn:btih:cb84c9f72d248d408a411d7abc30b91f3cfc821c","amp;dn":"Greys+Anatomy+S07E14+HDTV+XviD-LOL+%7BTheCloon%7D","amp;tr":["udp%3A%2F%2Ftracker.openbittorrent.com%3A80","udp%3A%2F%2Fopen.demonii.com%3A1337","udp%3A%2F%2Ftracker.coppersurfer.tk%3A6969","udp%3A%2F%2Fexodus.desync.com%3A6969"],"infoHash":"cb84c9f72d248d408a411d7abc30b91f3cfc821c","infoHashBuffer":{"type":"Buffer","data":[203,132,201,247,45,36,141,64,138,65,29,122,188,48,185,31,60,252,130,28]},"announce":[],"urlList":[]}}